# Blender v2.76 (sub 0) OBJ File: ''
# www.blender.org
mtllib myroom_3.mtl
o Cube_Cube.001
v -1.647286 -0.644096 1.642622
v -1.647286 1.355904 1.642622
v -1.647286 -0.644096 -0.357378
v -1.647286 1.355904 -0.357378
v 0.352714 -0.644096 1.642622
v 0.352714 1.355904 1.642622
v 0.352714 -0.644096 -0.357378
v 0.352714 1.355904 -0.357378
vn 0.000000 0.000000 1.000000
vn 1.000000 0.000000 0.000000
vn -1.000000 0.000000 0.000000
vn 0.000000 1.000000 0.000000
usemtl Material.002
s off
f 4//1 3//1 7//1 8//1
usemtl Material.003
f 2//2 1//2 3//2 4//2
f 8//3 7//3 5//3 6//3
f 1//4 5//4 7//4 3//4
