# Blender v2.76 (sub 0) OBJ File: ''
# www.blender.org
mtllib myroom_4.mtl
o Cube
v 1.000000 -1.000000 -1.239091
v 1.000000 -1.000000 0.760909
v -1.000000 -1.000000 0.760908
v -1.000000 -1.000000 -1.239092
v 1.000000 1.000000 -1.239091
v 0.999999 1.000000 0.760909
v -1.000000 1.000000 0.760908
v -1.000000 1.000000 -1.239091
vn 0.000000 1.000000 0.000000
vn 0.000000 0.000000 -1.000000
vn -0.000000 -0.000000 1.000000
vn -1.000000 -0.000000 -0.000000
usemtl Material.001
s off
f 1//1 4//1 3//1 2//1
f 2//2 3//2 7//2 6//2
f 5//3 8//3 4//3 1//3
usemtl Material.002
f 1//4 2//4 6//4 5//4
