# Blender v2.76 (sub 0) OBJ File: ''
# www.blender.org
mtllib myroom.mtl
o Cube
v 0.994503 -1.005652 -0.996322
v 0.994503 -1.005652 1.003678
v -1.005497 -1.005652 1.003678
v -1.005497 -1.005652 -0.996322
v 0.994503 0.994348 -0.996321
v 0.994502 0.994348 1.003679
v -1.005497 0.994348 1.003678
v -1.005497 0.994348 -0.996322
vn 0.000000 -1.000000 0.000000
vn 1.000000 0.000000 0.000000
vn -1.000000 -0.000000 -0.000000
vn 0.000000 0.000000 -1.000000
usemtl Material
s off
f 1//1 2//1 3//1 4//1
usemtl Material.001
f 1//2 5//2 6//2 2//2
f 3//3 7//3 8//3 4//3
f 5//4 1//4 4//4 8//4
